<?xml version="1.0" standalone="no"?>
<!DOCTYPE svg PUBLIC "-//W3C//DTD SVG 1.0//EN" "http://www.w3.org/TR/2001/REC-SVG-20010904/DTD/svg10.dtd">
<svg xmlns="http://www.w3.org/2000/svg" xmlns:xlink="http://www.w3.org/1999/xlink" id="body_1" viewBox="450 250 375 250" width="300" height="60">

<g transform="matrix(1.9068903 0 0 1.9068903 -0 243.8436)">
    <path d="M349 148C 232.709 148 116.91799 148 1.063495 148C 1.063495 99.0603 1.063495 50.120506 1.063495 1.090354C 179.99998 1.090354 358.99997 1.090354 537.96545 1.090354C 537.96545 50.081924 537.96545 99.04098 537.96545 148C 475.12057 148 412.31027 148 349 148zM102.79591 132.74954C 112.1457 140.47734 124.61779 140.2371 132.01945 132.17216C 138.86043 124.718185 139.53043 111.625656 130.7498 102.91314C 102.02196 74.40822 73.58727 45.6081 44.96017 17.001238C 37.252926 9.299444 23.529444 9.847406 16.213083 17.862627C 8.081908 26.770494 8.795922 38.767406 18.187807 48.179043C 46.18652 76.23665 74.235855 104.24372 102.79591 132.74954zM32.495586 97.71159C 18.424248 104.009254 17.970844 121.10086 25.699617 129.57986C 27.236258 131.26567 30.096083 132.63518 32.346943 132.63695C 47.96544 132.64928 63.584206 132.25894 79.203026 132.00623C 80.95231 131.9779 82.70245 132.0024 85.606445 132.0024C 74.57008 120.92661 64.66807 110.46598 54.162716 100.65113C 48.27214 95.147736 40.83635 94.28616 32.495586 97.71159zM124.721954 43.97532C 128.19388 37.498505 128.35733 30.826622 124.97443 24.416826C 123.18989 21.035543 121.19892 17.239866 116.238014 17.338535C 102.95388 17.602747 89.66835 17.801508 76.382866 17.990656C 72.13432 18.05114 67.884186 18.000124 62.44614 18.000124C 73.146706 28.850418 82.65383 39.234554 92.96967 48.74112C 103.24723 58.212406 115.95645 56.15937 124.721954 43.97532zM490.0075 85.475266C 490.00638 77.1453 490.1582 68.80998 489.8672 60.490158C 489.813 58.940502 488.27158 56.826683 486.85944 56.168583C 485.99292 55.764782 483.60202 57.301853 482.70975 58.54955C 480.5931 61.509163 478.96417 64.817184 477.13315 67.98151C 473.77243 73.78945 470.4081 79.59532 466.76343 85.88879C 461.24734 76.3068 456.2901 67.459946 451.029 58.79767C 450.1908 57.417606 447.98798 56.866367 446.41605 55.93194C 445.55267 57.52556 443.9864 59.100136 443.94263 60.715965C 443.6991 69.705734 443.8249 78.70552 443.82443 87.70187C 443.82428 90.44503 443.82437 93.18819 443.82437 95.663025C 446.68848 95.663025 448.7636 95.663025 451.28506 95.663025C 451.28506 88.32248 451.28506 81.32292 451.28506 73.06414C 455.64713 80.68687 459.27936 87.18751 463.067 93.59633C 465.389 97.525375 468.1271 97.5101 470.5758 93.68364C 471.55933 92.146706 472.36203 90.49501 473.27197 88.90989C 476.17645 83.85042 479.09256 78.79765 482.00415 73.742294C 482.37384 73.8824 482.74353 74.022514 483.11322 74.16262C 483.11322 81.39722 483.11322 88.63181 483.11322 95.70076C 485.61746 95.70076 487.6938 95.70076 490.0075 95.70076C 490.0075 92.418976 490.0075 89.44143 490.0075 85.475266zM185.52792 73.78377C 183.1031 73.332954 180.69202 72.617195 178.25038 72.49051C 174.10065 72.2752 169.93166 72.43904 165.77078 72.427895C 162.80249 72.419945 159.90584 72.29507 159.84872 68.19385C 159.78847 63.865288 162.76743 63.57471 165.96716 63.570446C 167.79796 63.568005 169.62874 63.568947 171.45953 63.568893C 177.05629 63.568737 182.65306 63.56884 188.27582 63.56884C 188.27582 60.76893 188.27582 58.674225 188.27582 56.186348C 179.87732 56.186348 171.74663 55.850048 163.65767 56.286762C 156.45685 56.67552 152.22458 61.685875 152.43619 68.40438C 152.65424 75.32749 157.39847 79.744896 164.86446 79.85785C 170.02275 79.93589 175.21938 79.54611 180.321 80.09257C 181.93225 80.26515 184.45772 82.79822 184.44728 84.23564C 184.43625 85.756905 182.08575 87.53396 180.39796 88.6619C 179.47404 89.27934 177.80814 88.79288 176.4768 88.79324C 168.6967 88.79539 160.9166 88.7943 153.12888 88.7943C 153.12888 91.45673 153.12888 93.66602 153.12888 96.02469C 162.11772 96.02469 170.76767 96.05569 179.41727 96.014366C 185.73569 95.98418 189.77834 93.34232 191.45697 88.28357C 193.29878 82.733154 191.56535 78.00621 185.52792 73.78377zM314.03067 67.18119C 312.35168 69.34738 309.60703 71.33976 309.21936 73.71657C 308.45242 78.41877 308.5721 83.38 309.10464 88.14707C 309.622 92.778275 312.8821 95.61116 317.55908 95.913574C 322.5373 96.23546 327.56635 96.223274 332.54718 95.923996C 337.36194 95.634705 341.28793 92.96274 341.4926 88.09027C 341.97134 76.69534 341.64557 65.26661 341.64557 53.846466C 339.13934 53.846466 337.09308 53.846466 334.81738 53.846466C 334.81738 63.056858 334.81854 71.87969 334.81702 80.70252C 334.8156 88.82094 334.81348 88.89536 326.9455 88.8048C 314.27722 88.65898 316.26935 90.79878 315.96045 77.5811C 315.8817 74.21323 317.35907 73.12427 320.40625 73.17203C 324.15677 73.23081 327.90887 73.186066 331.49677 73.186066C 331.49677 70.31529 331.49677 68.25533 331.49677 66.0689C 326.81958 66.0689 322.4984 66.01202 318.1806 66.10742C 317.0483 66.13244 315.92642 66.62983 314.03067 67.18119zM517.27515 86.01899C 525.1356 85.75719 529.4789 82.195526 529.5005 75.993706C 529.5221 69.791046 524.96295 66.05267 517.2386 65.98798C 513.74567 65.95873 510.24554 65.87293 506.76016 66.045166C 500.45132 66.356926 496.9711 69.93371 496.82516 76.137505C 496.74304 79.62908 496.7159 83.127594 496.83688 86.61698C 497.01413 91.73038 500.34283 95.53097 505.4277 95.903755C 509.99887 96.23888 514.61395 95.97438 519.1179 95.97438C 519.1179 93.383995 519.1179 91.3507 519.1179 89.12894C 515.02673 89.12894 511.35504 89.332436 507.72696 89.02364C 506.37296 88.9084 504.0641 87.67411 504.0019 86.818405C 503.7044 82.726715 503.26712 78.33028 504.5362 74.60681C 504.99344 73.26528 510.0754 73.4523 513.0609 73.04447C 514.20404 72.88831 515.3916 72.9491 516.54987 73.03383C 518.85876 73.20271 522.16675 72.0414 522.2934 75.8868C 522.4218 79.787254 519.13885 78.90635 516.7858 78.96153C 513.5019 79.038536 510.21487 78.980934 506.7079 78.980934C 506.7079 81.48776 506.7079 83.557976 506.7079 86.019035C 510.09244 86.019035 513.2185 86.019035 517.27515 86.01899zM294.04108 95.41343C 294.04108 93.470634 294.04108 91.52785 294.04108 89.14456C 292.1924 89.14456 290.73206 89.151024 289.27173 89.143555C 276.96136 89.08059 278.2285 90.749695 278.18137 77.26041C 278.17014 74.0409 279.74445 72.84196 282.86453 72.982475C 286.1884 73.132195 289.56302 72.71962 292.8376 73.14798C 294.35764 73.34682 295.69327 74.95553 297.1125 75.9251C 295.7503 76.94462 294.46518 78.688965 293.01108 78.843475C 289.134 79.255486 285.18423 78.98364 281.3755 78.98364C 281.3755 81.68502 281.3755 83.626335 281.3755 85.96546C 285.8895 85.96546 290.18985 86.143906 294.46948 85.922264C 300.40247 85.61499 304.05756 81.67911 304.083 75.97242C 304.10733 70.522 300.6359 66.54987 294.89627 66.13884C 290.25894 65.806725 285.5673 65.85763 280.92117 66.11922C 275.16623 66.44323 271.78937 69.97677 271.4922 75.72762C 271.31195 79.21551 271.34808 82.724106 271.47766 86.21633C 271.69568 92.0926 275.35666 95.77446 281.26108 95.98184C 285.25153 96.121994 289.25223 95.97077 294.04108 95.41343zM419.5997 96.01239C 422.38513 96.01239 425.1706 96.01239 427.95123 96.01239C 427.95123 93.5261 427.95123 91.58656 427.95123 89.141716C 423.9466 89.141716 420.11816 89.44129 416.37906 88.99419C 414.88443 88.81547 412.611 87.18412 412.35272 85.884125C 410.1599 74.844894 411.73672 73.012276 422.62167 73.01243C 424.12137 73.01245 425.7888 72.599045 427.07693 73.12122C 428.58118 73.73098 429.75436 75.1576 431.07117 76.22982C 429.75977 77.14872 428.51007 78.73131 427.12524 78.86002C 423.22733 79.22231 419.27383 78.98652 415.3457 78.98652C 415.3457 81.62317 415.3457 83.564186 415.3457 85.99388C 419.65112 85.99388 423.77768 86.12909 427.89206 85.9626C 434.2707 85.70449 437.99817 81.92442 438.01147 75.97918C 438.0246 70.12163 434.2617 66.35418 427.82916 66.05139C 424.00488 65.87139 420.16376 65.912506 416.3342 66.01054C 409.27432 66.19127 405.62762 69.71101 405.17636 76.72286C 405.04822 78.7144 405.13913 80.72071 405.14664 82.720184C 405.18506 92.98041 408.25183 95.995865 419.5997 96.01239zM348.12036 77.44524C 348.1307 79.44444 348.01318 81.454025 348.1744 83.440994C 348.75797 90.6328 353.64575 95.65384 360.68292 95.965416C 366.1708 96.208405 371.69974 96.292854 377.16196 95.85019C 378.68018 95.72716 381.2019 93.5271 381.25974 92.193115C 381.6329 83.58095 381.45074 74.944725 381.45074 66.31153C 378.83978 66.31153 376.61548 66.31153 374.02225 66.31153C 374.02225 73.93329 374.02225 81.22076 374.02225 88.46656C 373.1543 88.605 372.66577 88.746025 372.17596 88.75072C 369.17703 88.77946 366.17712 88.821686 363.17883 88.77591C 357.55313 88.690025 355.67737 86.87298 355.59705 81.31835C 355.52518 76.35014 355.5819 71.38006 355.5819 66.26885C 352.9079 66.26885 350.6854 66.26885 348.1204 66.26885C 348.1204 69.86776 348.1204 73.171906 348.12036 77.44524zM196.7902 75.44916C 196.80167 79.42641 196.63966 83.41369 196.86887 87.37835C 197.14998 92.240585 200.32335 95.326836 204.74997 95.69902C 211.79842 96.29166 218.93321 95.857346 225.865 95.857346C 225.865 93.28789 225.865 91.20422 225.865 88.82639C 221.75159 88.82639 217.9465 88.86831 214.14264 88.8185C 202.91077 88.67143 203.94948 90.79568 203.8083 77.82268C 203.77039 74.33885 205.22307 73.075264 208.57309 73.14556C 214.34015 73.26659 220.11157 73.17907 225.92917 73.17907C 225.92917 70.513275 225.92917 68.43908 225.92917 66.00577C 219.5596 66.00577 213.42766 65.886284 207.30254 66.03924C 201.12369 66.19352 198.59396 68.39706 196.7902 75.44916zM239.61691 58.76738C 239.5451 57.151875 239.4733 55.53637 239.39299 53.729473C 236.86348 53.729473 234.65538 53.729473 232.34918 53.729473C 232.34918 67.9314 232.34918 81.78648 232.34918 95.74597C 234.81816 95.74597 237.03174 95.74597 239.61676 95.74597C 239.61676 83.5326 239.61676 71.61767 239.61691 58.76738zM258.12534 84.518295C 258.12534 88.28005 258.12534 92.04182 258.12534 95.83124C 260.8653 95.83124 262.9835 95.83124 265.57367 95.83124C 265.57367 90.527855 265.6005 85.41319 265.5593 80.29908C 265.54468 78.47964 265.4182 76.65661 265.25046 74.84376C 264.7847 69.80965 261.69778 66.83092 257.00385 66.29727C 252.15134 65.745605 247.18733 66.17458 242.41782 66.17458C 242.41782 68.7471 242.41782 70.82731 242.41782 73.21385C 244.3498 73.21385 245.99644 73.2173 247.64307 73.2133C 259.64984 73.18416 258.02585 72.519196 258.12534 84.518295zM390.51022 92.90817C 393.52032 95.64687 396.9524 96.64124 400.93927 95.64379C 400.93927 93.32467 400.93927 91.22604 400.93927 88.907745C 395.8165 89.503975 394.99844 86.76881 395.10168 82.561646C 395.3362 73.00312 395.17554 63.4349 395.17554 53.73553C 392.50793 53.73553 390.4325 53.73553 388.07236 53.73553C 388.07236 65.08578 387.9903 76.172806 388.1597 87.25599C 388.1855 88.9441 389.37653 90.61439 390.51022 92.90817z" stroke="none" fill="#FEFEFE" fill-rule="nonzero" />
    <path d="M102.53067 132.51004C 74.235855 104.24372 46.18652 76.23665 18.187807 48.179043C 8.795922 38.767406 8.081908 26.770494 16.213083 17.862627C 23.529444 9.847406 37.252926 9.299444 44.96017 17.001238C 73.58727 45.6081 102.02196 74.40822 130.7498 102.91314C 139.53043 111.625656 138.86043 124.718185 132.01945 132.17216C 124.61779 140.2371 112.1457 140.47734 102.53067 132.51004z" stroke="none" fill="#353535" fill-rule="nonzero" />
    <path d="M32.83821 97.5161C 40.83635 94.28616 48.27214 95.147736 54.162716 100.65113C 64.66807 110.46598 74.57008 120.92661 85.606445 132.0024C 82.70245 132.0024 80.95231 131.9779 79.203026 132.00623C 63.584206 132.25894 47.96544 132.64928 32.346943 132.63695C 30.096083 132.63518 27.236258 131.26567 25.699617 129.57986C 17.970844 121.10086 18.424248 104.009254 32.83821 97.5161z" stroke="none" fill="#4BC8FF" fill-rule="nonzero" />
    <path d="M124.515656 44.291138C 115.95645 56.15937 103.24723 58.212406 92.96967 48.74112C 82.65383 39.234554 73.146706 28.850418 62.44614 18.000124C 67.884186 18.000124 72.13432 18.05114 76.382866 17.990656C 89.66835 17.801508 102.95388 17.602747 116.238014 17.338535C 121.19892 17.239866 123.18989 21.035543 124.97443 24.416826C 128.35733 30.826622 128.19388 37.498505 124.515656 44.291138z" stroke="none" fill="#4AC7FF" fill-rule="nonzero" />
    <path d="M490.0075 85.969574C 490.0075 89.44143 490.0075 92.418976 490.0075 95.70076C 487.6938 95.70076 485.61746 95.70076 483.11322 95.70076C 483.11322 88.63181 483.11322 81.39722 483.11322 74.16262C 482.74353 74.022514 482.37384 73.8824 482.00415 73.742294C 479.09256 78.79765 476.17645 83.85042 473.27197 88.90989C 472.36203 90.49501 471.55933 92.146706 470.5758 93.68364C 468.1271 97.5101 465.389 97.525375 463.067 93.59633C 459.27936 87.18751 455.64713 80.68687 451.28506 73.06414C 451.28506 81.32292 451.28506 88.32248 451.28506 95.663025C 448.7636 95.663025 446.68848 95.663025 443.82437 95.663025C 443.82437 93.18819 443.82428 90.44503 443.82443 87.70187C 443.8249 78.70552 443.6991 69.705734 443.94263 60.715965C 443.9864 59.100136 445.55267 57.52556 446.41605 55.931946C 447.98798 56.866367 450.1908 57.417606 451.029 58.79767C 456.2901 67.459946 461.24734 76.3068 466.76343 85.88879C 470.4081 79.59532 473.77243 73.78945 477.13315 67.98151C 478.96417 64.817184 480.5931 61.509163 482.70975 58.54955C 483.60202 57.301853 485.99292 55.764782 486.85944 56.168583C 488.27158 56.826683 489.813 58.940502 489.8672 60.490158C 490.1582 68.80998 490.00638 77.1453 490.0075 85.969574z" stroke="none" fill="#373737" fill-rule="nonzero" />
    <path d="M185.88562 73.92494C 191.56535 78.00621 193.29878 82.733154 191.45697 88.28357C 189.77834 93.34232 185.73569 95.98418 179.41727 96.014366C 170.76767 96.05569 162.11772 96.02469 153.12888 96.02469C 153.12888 93.66602 153.12888 91.45673 153.12888 88.7943C 160.9166 88.7943 168.6967 88.79539 176.4768 88.79324C 177.80814 88.79288 179.47404 89.27934 180.39796 88.6619C 182.08575 87.53396 184.43625 85.756905 184.44728 84.23564C 184.45772 82.79822 181.93225 80.26515 180.321 80.09257C 175.21938 79.54611 170.02275 79.93589 164.86446 79.85785C 157.39847 79.744896 152.65424 75.32749 152.43619 68.40438C 152.22458 61.685875 156.45685 56.67552 163.65767 56.286762C 171.74663 55.850048 179.87732 56.186348 188.27582 56.186348C 188.27582 58.674225 188.27582 60.76893 188.27582 63.56884C 182.65306 63.56884 177.05629 63.568737 171.45953 63.568893C 169.62874 63.568947 167.79796 63.568005 165.96716 63.570446C 162.76743 63.57471 159.78847 63.865288 159.84872 68.19385C 159.90584 72.29507 162.80249 72.419945 165.77078 72.427895C 169.93166 72.43904 174.10065 72.2752 178.25038 72.49051C 180.69202 72.617195 183.1031 73.332954 185.88562 73.92494z" stroke="none" fill="#3E3E3E" fill-rule="nonzero" />
    <path d="M314.41522 67.045746C 315.92642 66.62983 317.0483 66.13244 318.1806 66.10742C 322.4984 66.01202 326.81958 66.0689 331.49677 66.0689C 331.49677 68.25533 331.49677 70.31529 331.49677 73.186066C 327.90887 73.186066 324.15677 73.23081 320.40625 73.17203C 317.35907 73.12427 315.8817 74.21323 315.96045 77.5811C 316.26935 90.79878 314.27722 88.65898 326.9455 88.8048C 334.81348 88.89536 334.8156 88.82094 334.81702 80.70252C 334.81854 71.87969 334.81738 63.056858 334.81738 53.846466C 337.09308 53.846466 339.13934 53.846466 341.64557 53.846466C 341.64557 65.26661 341.97134 76.69534 341.4926 88.09027C 341.28793 92.96274 337.36194 95.634705 332.54718 95.923996C 327.56635 96.223274 322.5373 96.23546 317.55908 95.913574C 312.8821 95.61116 309.622 92.778275 309.10464 88.14707C 308.5721 83.38 308.45242 78.41877 309.21936 73.71657C 309.60703 71.33976 312.35168 69.34738 314.41522 67.045746z" stroke="none" fill="#393939" fill-rule="nonzero" />
    <path d="M516.8098 86.01901C 513.2185 86.019035 510.09244 86.019035 506.7079 86.019035C 506.7079 83.557976 506.7079 81.48776 506.7079 78.980934C 510.21487 78.980934 513.5019 79.038536 516.7858 78.96153C 519.13885 78.90635 522.4218 79.787254 522.2934 75.8868C 522.16675 72.0414 518.85876 73.20271 516.54987 73.03383C 515.3916 72.9491 514.20404 72.88831 513.0609 73.04447C 510.0754 73.4523 504.99344 73.26528 504.5362 74.60681C 503.26712 78.33028 503.7044 82.726715 504.0019 86.818405C 504.0641 87.67411 506.37296 88.9084 507.72696 89.02364C 511.35504 89.332436 515.02673 89.12894 519.1179 89.12894C 519.1179 91.3507 519.1179 93.383995 519.1179 95.97438C 514.61395 95.97438 509.99887 96.23888 505.4277 95.903755C 500.34283 95.53097 497.01413 91.73038 496.83688 86.61698C 496.7159 83.127594 496.74304 79.62908 496.82516 76.137505C 496.9711 69.93371 500.45132 66.356926 506.76016 66.045166C 510.24554 65.87293 513.74567 65.95873 517.2386 65.98798C 524.96295 66.05267 529.5221 69.791046 529.5005 75.993706C 529.4789 82.195526 525.1356 85.75719 516.8098 86.01901z" stroke="none" fill="#3B3B3B" fill-rule="nonzero" />
    <path d="M293.6447 95.681656C 289.25223 95.97077 285.25153 96.121994 281.26108 95.98184C 275.35666 95.77446 271.69568 92.0926 271.47766 86.21633C 271.34808 82.724106 271.31195 79.21551 271.4922 75.72762C 271.78937 69.97677 275.16623 66.44323 280.92117 66.11922C 285.5673 65.85763 290.25894 65.806725 294.89627 66.13884C 300.6359 66.54987 304.10733 70.522 304.083 75.97242C 304.05756 81.67911 300.40247 85.61499 294.46948 85.922264C 290.18985 86.143906 285.8895 85.96546 281.3755 85.96546C 281.3755 83.626335 281.3755 81.68502 281.3755 78.98364C 285.18423 78.98364 289.134 79.255486 293.01108 78.843475C 294.46518 78.688965 295.7503 76.94462 297.1125 75.925095C 295.69327 74.95553 294.35764 73.34682 292.8376 73.14798C 289.56302 72.71962 286.1884 73.132195 282.86453 72.982475C 279.74445 72.84196 278.17014 74.0409 278.18137 77.26041C 278.2285 90.749695 276.96136 89.08059 289.27173 89.143555C 290.73206 89.151024 292.1924 89.14456 294.04108 89.14456C 294.04108 91.52785 294.04108 93.470634 293.6447 95.681656z" stroke="none" fill="#3A3A3A" fill-rule="nonzero" />
    <path d="M419.1272 96.01239C 408.25183 95.995865 405.18506 92.98041 405.14664 82.720184C 405.13913 80.72071 405.04822 78.7144 405.17636 76.72286C 405.62762 69.71101 409.27432 66.19127 416.3342 66.01054C 420.16376 65.912506 424.00488 65.87139 427.82916 66.05139C 434.2617 66.35418 438.0246 70.12163 438.01147 75.97918C 437.99817 81.92442 434.2707 85.70449 427.89206 85.9626C 423.77768 86.12909 419.65112 85.99388 415.3457 85.99388C 415.3457 83.564186 415.3457 81.62317 415.3457 78.98652C 419.27383 78.98652 423.22733 79.22231 427.12524 78.86002C 428.51007 78.73131 429.75977 77.14872 431.07117 76.22982C 429.75436 75.1576 428.58118 73.73098 427.07693 73.12122C 425.7888 72.599045 424.12137 73.01245 422.62167 73.01243C 411.73672 73.012276 410.1599 74.844894 412.35272 85.884125C 412.611 87.18412 414.88443 88.81547 416.37906 88.99419C 420.11816 89.44129 423.9466 89.141716 427.95123 89.141716C 427.95123 91.58656 427.95123 93.5261 427.95123 96.01239C 425.1706 96.01239 422.38513 96.01239 419.1272 96.01239z" stroke="none" fill="#393939" fill-rule="nonzero" />
    <path d="M348.12036 76.96065C 348.1204 73.171906 348.1204 69.86776 348.1204 66.26885C 350.6854 66.26885 352.9079 66.26885 355.5819 66.26885C 355.5819 71.38006 355.52518 76.35014 355.59705 81.31835C 355.67737 86.87298 357.55313 88.690025 363.17883 88.77591C 366.17712 88.821686 369.17703 88.77946 372.17596 88.75072C 372.66577 88.746025 373.1543 88.605 374.02225 88.46656C 374.02225 81.22076 374.02225 73.93329 374.02225 66.31153C 376.61548 66.31153 378.83978 66.31153 381.45074 66.31153C 381.45074 74.944725 381.6329 83.58095 381.25974 92.193115C 381.2019 93.5271 378.68018 95.72716 377.16196 95.85019C 371.69974 96.292854 366.1708 96.208405 360.68292 95.965416C 353.64575 95.65384 348.75797 90.6328 348.1744 83.440994C 348.01318 81.454025 348.1307 79.44444 348.12036 76.96065z" stroke="none" fill="#404040" fill-rule="nonzero" />
    <path d="M196.81088 75.03735C 198.59396 68.39706 201.12369 66.19352 207.30254 66.03924C 213.42766 65.886284 219.5596 66.00577 225.92917 66.00577C 225.92917 68.43908 225.92917 70.513275 225.92917 73.17907C 220.11157 73.17907 214.34015 73.26659 208.57309 73.14556C 205.22307 73.075264 203.77039 74.33885 203.8083 77.82268C 203.94948 90.79568 202.91077 88.67143 214.14264 88.8185C 217.9465 88.86831 221.75159 88.82639 225.865 88.82639C 225.865 91.20422 225.865 93.28789 225.865 95.857346C 218.93321 95.857346 211.79842 96.29166 204.74997 95.69902C 200.32335 95.326836 197.14998 92.240585 196.86887 87.37835C 196.63966 83.41369 196.80167 79.42641 196.81088 75.03735z" stroke="none" fill="#383838" fill-rule="nonzero" />
    <path d="M239.61684 59.23506C 239.61676 71.61767 239.61676 83.5326 239.61676 95.74597C 237.03174 95.74597 234.81816 95.74597 232.34918 95.74597C 232.34918 81.78648 232.34918 67.9314 232.34918 53.729473C 234.65538 53.729473 236.86348 53.729473 239.39299 53.729473C 239.4733 55.53637 239.5451 57.151875 239.61684 59.23506z" stroke="none" fill="#474747" fill-rule="nonzero" />
    <path d="M258.12537 84.02837C 258.02585 72.519196 259.64984 73.18416 247.64307 73.2133C 245.99644 73.2173 244.3498 73.21385 242.41782 73.21385C 242.41782 70.82731 242.41782 68.7471 242.41782 66.17458C 247.18733 66.17458 252.15134 65.745605 257.00385 66.29727C 261.69778 66.83092 264.7847 69.80965 265.25046 74.84376C 265.4182 76.65661 265.54468 78.47964 265.5593 80.29908C 265.6005 85.41319 265.57367 90.527855 265.57367 95.83124C 262.9835 95.83124 260.8653 95.83124 258.12534 95.83124C 258.12534 92.04182 258.12534 88.28005 258.12537 84.02837z" stroke="none" fill="#3F3F3F" fill-rule="nonzero" />
    <path d="M390.2694 92.60054C 389.37653 90.61439 388.1855 88.9441 388.1597 87.25599C 387.9903 76.172806 388.07236 65.08578 388.07236 53.73553C 390.4325 53.73553 392.50793 53.73553 395.17554 53.73553C 395.17554 63.4349 395.3362 73.00312 395.10168 82.561646C 394.99844 86.76881 395.8165 89.503975 400.93927 88.907745C 400.93927 91.22604 400.93927 93.32467 400.93927 95.64379C 396.9524 96.64124 393.52032 95.64687 390.2694 92.60054z" stroke="none" fill="#373737" fill-rule="nonzero" />
</g>
</svg>